{"glyphs":{":":{"x_min":0,"x_max":333,"ha":333,"o":"m 209 452 q 242 452 266 428 q 289 404 289 371 q 289 338 266 314 q 242 291 208 291 q 175 291 152 314 q 128 338 128 371 q 128 404 152 428 q 175 452 209 452 z m 120 146 q 154 146 177 123 q 201 100 201 66 q 201 33 177 10 q 153 -14 120 -14 q 87 -14 63 10 q 40 33 40 66 q 40 100 63 123 q 87 146 120 146 z"},"$":{"x_min":0,"x_max":500,"ha":500,"o":"m 312 411 q 404 319 421 292 q 452 244 452 187 q 452 95 385 40 q 318 -15 221 -15 q 210 -15 189 -14 l 171 -76 l 134 -76 l 153 -8 q 121 -2 102 5 q 82 12 39 34 l 84 191 l 103 191 q 106 119 121 89 q 136 59 167 39 l 242 296 q 173 361 148 407 q 124 453 124 500 q 124 546 148 588 q 173 630 220 654 q 267 677 319 677 q 330 677 352 676 l 360 704 l 397 704 l 388 670 q 454 656 500 626 l 454 483 l 435 483 q 440 516 440 536 q 440 569 421 597 q 408 617 376 633 z m 341 642 q 294 644 264 616 q 234 587 234 543 q 234 490 283 439 z m 202 29 q 217 27 226 27 q 269 27 302 61 q 334 95 334 144 q 334 176 320 205 q 306 233 271 269 z"},"?":{"x_min":0,"x_max":500,"ha":500,"o":"m 188 187 l 168 187 q 168 239 185 276 q 202 313 273 398 q 325 458 345 505 q 358 536 358 571 q 358 612 338 635 q 318 657 289 657 q 268 657 256 646 q 243 635 243 622 q 243 612 252 597 q 269 566 269 543 q 269 519 250 500 q 230 481 203 481 q 175 481 155 502 q 135 523 135 558 q 135 615 184 646 q 233 677 298 677 q 352 677 393 660 q 435 642 455 610 q 476 578 476 543 q 476 494 451 455 q 417 401 330 348 q 244 294 219 265 q 195 235 188 187 z m 168 146 q 202 146 225 122 q 248 99 248 66 q 248 33 225 9 q 201 -14 168 -14 q 135 -14 112 9 q 88 33 88 66 q 88 99 112 122 q 135 146 168 146 z"},"<":{"x_min":0,"x_max":570,"ha":570,"o":"m 572 90 l 39 308 l 39 348 l 572 568 l 572 500 l 160 328 l 572 159 z"},"'":{"x_min":0,"x_max":278,"ha":278,"o":"m 179 353 l 156 353 l 158 539 q 159 609 189 643 q 219 677 261 677 q 285 677 300 663 q 314 648 314 627 q 314 600 281 540 z"},"=":{"x_min":0,"x_max":570,"ha":570,"o":"m 39 441 l 573 441 l 573 378 l 39 378 z m 39 282 l 573 282 l 573 218 l 39 218 z"},"a":{"x_min":0,"x_max":500,"ha":500,"o":"m 479 446 l 384 121 l 375 82 q 373 74 373 71 q 373 65 377 61 q 381 56 386 56 q 396 56 414 72 q 421 78 449 117 l 466 108 q 432 44 392 15 q 353 -14 308 -14 q 280 -14 265 1 q 250 15 250 37 q 250 56 266 108 l 278 147 q 221 50 169 10 q 139 -14 104 -14 q 60 -14 40 23 q 20 60 20 106 q 20 175 62 264 q 104 354 172 408 q 228 453 277 453 q 305 453 321 437 q 338 421 346 379 l 363 439 z m 323 353 q 323 393 311 410 q 302 422 287 422 q 271 422 255 408 q 223 377 185 285 q 147 192 147 125 q 147 99 156 88 q 164 76 174 76 q 196 76 219 102 q 251 138 277 190 q 323 282 323 353 z"},"L":{"x_min":0,"x_max":611,"ha":611,"o":"m 497 0 l -32 0 l -27 18 q 21 18 42 36 q 64 55 83 119 l 206 544 q 216 579 216 599 q 216 619 201 630 q 187 642 144 644 l 149 662 l 467 662 l 461 644 q 416 643 393 624 q 370 604 353 544 l 240 155 q 219 81 219 64 q 219 55 230 46 q 241 38 265 38 q 346 38 422 75 q 497 112 549 186 l 570 186 z"},"3":{"x_min":0,"x_max":500,"ha":500,"o":"m 127 360 l 134 381 q 202 391 243 410 q 299 434 324 467 q 350 500 350 537 q 350 569 327 592 q 304 615 270 615 q 243 615 220 601 q 197 587 170 552 l 150 562 q 191 623 233 649 q 274 676 325 676 q 390 676 430 639 q 470 603 470 552 q 470 512 450 482 q 431 453 393 431 q 365 415 305 398 q 359 375 381 345 q 414 302 414 240 q 414 125 314 50 q 231 -14 121 -14 q 62 -14 33 8 q 12 23 12 48 q 12 71 28 85 q 43 100 66 100 q 78 100 89 95 q 107 87 145 62 q 182 37 206 37 q 236 37 259 68 q 293 113 293 182 q 293 235 271 275 q 250 315 216 334 q 183 354 127 360 z"},";":{"x_min":0,"x_max":333,"ha":333,"o":"m 210 452 q 245 452 268 428 q 292 404 292 371 q 292 337 268 313 q 244 290 210 290 q 177 290 153 313 q 129 337 129 371 q 129 404 153 428 q 177 452 210 452 z m 12 -161 l 0 -140 q 75 -98 93 -76 q 107 -59 107 -42 q 107 -22 82 1 q 57 24 49 40 q 42 52 42 71 q 42 103 66 126 q 90 149 124 149 q 156 149 180 123 q 205 97 205 59 q 205 -2 158 -62 q 111 -121 12 -161 z"},"J":{"x_min":0,"x_max":500,"ha":500,"o":"m 267 644 l 272 662 l 598 662 l 592 644 q 547 644 523 624 q 498 604 481 546 l 411 298 q 372 164 343 110 q 314 56 260 21 q 207 -15 125 -15 q 58 -15 25 13 q -8 41 -8 84 q -8 120 14 143 q 37 167 65 167 q 90 167 108 151 q 125 135 125 111 q 125 90 104 65 q 91 49 91 40 q 91 32 98 27 q 110 18 125 18 q 153 18 178 55 q 202 92 249 250 l 335 546 q 347 585 347 602 q 347 620 333 630 q 319 641 267 644 z"},"V":{"x_min":0,"x_max":667,"ha":667,"o":"m 156 -15 l 178 539 q 179 587 179 589 q 179 616 166 629 q 153 642 119 644 l 125 662 l 403 662 l 397 644 q 362 644 344 623 q 325 601 322 534 l 307 188 l 565 488 q 615 546 627 569 q 639 591 639 608 q 639 620 628 630 q 617 639 587 644 l 594 662 l 776 662 l 776 644 q 753 638 738 627 q 717 611 672 559 l 178 -15 z"},"\"":{"x_min":0,"x_max":555,"ha":555,"o":"m 424 352 l 400 352 l 404 540 q 405 591 414 613 q 427 642 453 660 q 479 677 507 677 q 530 677 545 663 q 559 648 559 627 q 559 613 555 602 q 549 584 524 540 z m 188 352 l 165 352 l 167 540 q 169 610 199 644 q 229 677 271 677 q 294 677 309 663 q 324 648 324 628 q 324 601 290 539 z"},"7":{"x_min":0,"x_max":500,"ha":500,"o":"m 207 662 l 554 662 l 554 640 l 165 -14 l 126 8 l 445 544 l 285 544 q 221 544 191 531 q 161 519 136 486 l 118 486 z"},"S":{"x_min":0,"x_max":556,"ha":556,"o":"m 583 677 l 528 453 l 512 453 q 507 505 493 537 q 473 583 439 608 q 405 633 365 633 q 327 633 299 604 q 270 575 270 538 q 270 502 290 467 q 310 432 383 362 q 442 306 463 265 q 483 225 483 177 q 483 124 455 79 q 426 34 372 10 q 318 -15 250 -15 q 208 -15 144 -3 q 81 10 60 10 q 43 10 30 5 q 17 0 -3 -15 l -22 -15 l 37 237 l 56 237 q 62 171 83 124 q 103 78 141 52 q 179 25 228 25 q 276 25 309 57 q 341 89 341 132 q 341 169 323 203 q 305 236 240 301 q 174 365 149 416 q 131 454 131 496 q 131 570 189 624 q 248 677 341 677 q 384 677 453 658 q 494 647 510 647 q 524 647 536 653 q 547 659 562 677 z"},"}":{"x_min":0,"x_max":348,"ha":348,"o":"m -93 -202 l -87 -180 q -42 -171 -12 -151 q 17 -130 30 -101 q 42 -71 46 -5 q 50 62 65 96 q 81 131 112 160 q 142 189 179 208 q 207 222 264 237 q 205 257 181 279 q 145 314 145 365 q 145 403 184 476 q 223 549 223 585 q 223 612 208 629 q 193 646 152 655 l 159 677 q 207 678 232 669 q 274 655 297 625 q 320 595 320 554 q 320 513 279 438 q 237 363 237 323 q 237 295 254 277 q 271 258 308 252 l 299 223 q 257 216 227 194 q 197 172 181 138 q 166 104 163 35 q 160 -34 145 -66 q 130 -98 94 -132 q 57 -166 12 -183 q -33 -200 -93 -202 z"},"Z":{"x_min":0,"x_max":611,"ha":611,"o":"m 679 644 l 172 36 l 212 36 q 331 36 402 71 q 474 106 535 187 l 556 187 l 486 0 l -27 0 l -27 18 l 479 624 l 417 624 q 297 624 240 594 q 182 565 141 494 l 122 494 l 178 662 l 679 662 z"},"x":{"x_min":0,"x_max":500,"ha":500,"o":"m 45 423 l 216 453 q 262 380 281 292 q 329 363 354 392 q 386 430 407 441 q 429 453 453 453 q 479 453 494 438 q 508 423 508 398 q 508 375 494 360 q 479 345 458 345 q 442 345 422 351 q 402 356 394 356 q 374 356 355 342 q 330 322 292 256 q 334 110 359 78 q 374 59 389 59 q 401 59 411 65 q 425 75 454 116 l 472 106 q 429 37 388 8 q 356 -14 326 -14 q 295 -14 274 0 q 253 14 237 46 q 221 77 199 146 q 142 74 110 40 q 77 7 56 -3 q 34 -14 10 -14 q -16 -14 -31 1 q -45 16 -45 39 q -45 64 -29 80 q -13 96 12 96 q 25 96 42 88 q 66 77 77 77 q 91 77 102 83 q 117 90 139 114 q 153 129 189 179 q 143 353 116 387 q 100 409 74 409 q 61 409 42 405 z"},")":{"x_min":0,"x_max":333,"ha":333,"o":"m -113 -190 l -104 -164 q -48 -124 -9 -76 q 30 -28 71 57 q 112 142 138 238 q 171 364 171 473 q 171 555 132 649 l 140 677 q 271 501 271 327 q 271 226 228 127 q 176 13 74 -77 q -3 -145 -113 -190 z"},"&":{"x_min":0,"x_max":778,"ha":778,"o":"m 290 365 q 286 392 284 413 q 282 434 282 450 q 282 548 343 613 q 403 677 486 677 q 539 677 571 647 q 603 618 603 576 q 603 524 571 486 q 525 430 423 386 q 456 281 468 250 q 480 220 500 184 q 528 214 541 243 q 553 272 553 291 q 553 307 543 318 q 534 330 513 335 l 519 353 l 707 353 l 699 335 q 673 329 655 314 q 637 299 588 233 q 553 187 519 151 q 558 97 590 76 q 611 62 637 62 q 652 62 664 67 q 675 72 691 86 l 707 86 q 683 36 645 10 q 606 -15 557 -15 q 516 -15 483 1 q 451 18 414 57 q 364 21 313 3 q 262 -15 210 -15 q 135 -15 90 27 q 46 69 46 125 q 46 170 65 206 q 84 241 137 281 q 190 321 290 365 z m 414 423 q 455 452 473 482 q 499 523 499 570 q 499 605 484 625 q 473 639 455 639 q 433 639 420 621 q 401 595 401 540 q 401 515 405 486 q 408 457 414 423 z m 297 329 q 241 298 217 265 q 192 232 192 186 q 192 130 227 92 q 262 53 305 53 q 324 53 346 62 q 369 70 395 86 q 365 131 338 199 q 310 268 297 329 z"},"_":{"x_min":0,"x_max":500,"ha":500,"o":"m -88 -152 l 431 -152 l 431 -216 l -88 -216 z"},"v":{"x_min":0,"x_max":444,"ha":444,"o":"m 138 -14 l 120 -14 q 122 26 122 47 q 122 103 113 208 q 104 313 94 348 q 85 374 72 386 q 62 394 48 394 q 40 394 28 392 l 28 409 l 190 453 q 239 319 238 111 q 310 180 337 222 q 364 265 364 293 q 364 315 347 339 q 330 362 326 372 q 322 381 322 393 q 322 418 338 436 q 355 453 380 453 q 407 453 422 436 q 442 412 442 379 q 442 345 430 313 q 418 280 389 236 q 360 192 325 156 q 259 89 138 -14 z"},"O":{"x_min":0,"x_max":722,"ha":722,"o":"m 281 -16 q 201 -16 152 17 q 103 50 78 106 q 53 163 53 217 q 53 325 115 435 q 177 545 282 612 q 388 678 490 678 q 550 678 604 647 q 658 617 688 563 q 718 509 718 454 q 718 330 640 206 q 561 82 463 26 q 389 -16 281 -16 z m 474 638 q 436 638 408 624 q 381 610 352 577 q 323 544 292 484 q 262 423 236 318 q 209 214 209 144 q 209 84 235 54 q 261 23 301 23 q 355 23 393 59 q 467 130 514 267 q 562 404 562 511 q 562 578 536 608 q 511 638 474 638 z"},"(":{"x_min":0,"x_max":333,"ha":333,"o":"m 435 677 l 426 650 q 356 601 310 535 q 240 433 196 287 q 151 142 151 14 q 151 -68 190 -162 l 182 -190 q 50 -15 50 160 q 50 261 94 359 q 146 475 248 564 q 325 632 435 677 z"},"C":{"x_min":0,"x_max":667,"ha":667,"o":"m 721 677 l 672 467 l 653 467 q 649 553 611 595 q 572 637 509 637 q 442 637 375 580 q 308 522 262 403 q 224 307 224 213 q 224 129 265 85 q 307 41 378 41 q 437 41 484 66 q 532 92 581 149 l 604 149 q 544 58 482 21 q 420 -15 331 -15 q 211 -15 138 57 q 65 130 65 247 q 65 356 124 455 q 182 555 291 616 q 400 677 508 677 q 549 677 610 660 q 641 651 653 651 q 678 651 703 677 z"},"W":{"x_min":0,"x_max":889,"ha":889,"o":"m 130 -15 l 175 551 q 177 576 177 592 q 177 618 165 630 q 153 643 123 644 l 130 662 l 398 662 l 393 644 l 379 644 q 353 644 337 627 q 320 609 317 562 l 291 226 l 491 499 l 496 562 q 498 582 498 593 q 498 617 485 630 q 472 643 442 644 l 447 662 l 716 662 l 711 644 q 675 644 658 627 q 641 609 637 562 l 612 226 l 804 491 q 854 559 865 583 q 874 600 874 611 q 874 623 863 632 q 852 641 820 644 l 825 662 l 1002 662 l 998 644 q 974 640 958 627 q 936 610 901 562 l 480 -15 l 452 -15 l 485 432 l 160 -15 z"},"A":{"x_min":0,"x_max":667,"ha":667,"o":"m 405 213 l 200 213 l 159 163 l 112 106 q 99 88 92 74 q 87 62 87 51 q 87 40 100 30 q 112 20 141 18 l 141 0 l -57 0 l -52 18 q -25 22 -5 37 q 22 56 74 117 l 543 677 l 565 677 l 543 135 q 542 93 542 84 q 542 51 555 36 q 568 21 600 18 l 595 0 l 308 0 l 313 18 q 356 22 362 25 q 376 32 387 53 q 398 75 401 129 z m 405 253 l 418 469 l 234 253 z"},"f":{"x_min":0,"x_max":333,"ha":333,"o":"m 262 382 l 205 156 q 165 -3 126 -75 q 88 -147 37 -181 q -14 -216 -80 -216 q -121 -216 -141 -200 q -160 -184 -160 -163 q -160 -143 -144 -128 q -128 -113 -102 -113 q -80 -113 -68 -125 q -56 -136 -56 -153 q -56 -168 -63 -176 q -71 -184 -71 -186 l -68 -189 q -65 -192 -62 -192 q -47 -192 -37 -183 q -11 -160 2 -127 q 11 -104 36 -8 l 135 382 l 67 382 l 83 439 q 120 438 137 448 q 153 458 172 492 q 226 591 285 634 q 345 677 418 677 q 465 677 486 659 q 507 641 507 612 q 507 587 493 572 q 479 557 458 557 q 438 557 426 569 q 413 582 413 599 q 413 611 421 625 q 429 638 429 643 q 429 648 426 652 q 422 655 416 655 q 387 655 357 620 q 307 562 277 439 l 348 439 l 331 382 z"},"Q":{"x_min":0,"x_max":722,"ha":722,"o":"m 299 -15 l 213 -93 q 261 -83 292 -83 q 334 -83 412 -104 q 489 -125 533 -125 q 582 -125 624 -107 q 649 -96 677 -70 l 691 -84 q 642 -144 575 -176 q 508 -208 407 -208 q 350 -208 273 -192 q 197 -175 152 -175 q 117 -175 76 -186 l 67 -174 l 247 -15 q 184 -4 150 19 q 104 50 79 105 q 53 159 53 217 q 53 325 115 435 q 178 545 282 611 q 387 677 490 677 q 550 677 604 647 q 658 618 688 563 q 718 509 718 450 q 718 363 675 271 q 633 179 560 110 q 488 42 414 11 q 364 -10 299 -15 z m 474 638 q 436 638 408 624 q 381 610 352 577 q 323 544 292 484 q 262 423 236 318 q 209 214 209 144 q 209 84 235 54 q 261 23 301 23 q 355 23 393 59 q 467 130 514 267 q 562 404 562 511 q 562 578 536 608 q 511 638 474 638 z"},"w":{"x_min":0,"x_max":667,"ha":667,"o":"m 430 453 l 466 110 q 540 183 562 225 q 585 267 585 295 q 585 306 580 317 q 575 328 561 347 q 546 366 544 371 q 541 380 541 393 q 541 418 558 435 q 575 453 601 453 q 626 453 642 435 q 663 410 663 376 q 663 322 611 234 q 560 146 375 -14 l 355 -14 l 325 286 l 114 -14 l 93 -14 q 101 122 101 240 q 101 317 92 352 q 87 372 75 382 q 62 392 48 392 q 40 392 28 390 l 28 408 l 196 453 q 209 415 214 381 q 223 329 223 260 q 223 236 221 186 l 410 453 z"},"-":{"x_min":0,"x_max":333,"ha":333,"o":"m 38 270 l 322 270 l 292 168 l 6 168 z"},"E":{"x_min":0,"x_max":667,"ha":667,"o":"m 378 625 l 304 369 l 327 369 q 416 369 456 392 q 497 416 525 475 l 543 475 l 469 217 l 452 217 q 457 243 457 259 q 457 286 441 303 q 425 320 399 328 q 383 333 331 333 l 292 333 l 229 110 q 221 81 221 67 q 221 56 231 49 q 247 39 291 39 q 374 39 448 74 q 521 110 580 182 l 600 182 l 531 0 l -35 0 l -29 18 q 21 18 43 37 q 66 56 85 120 l 209 546 q 220 582 220 602 q 220 621 207 631 q 193 641 146 644 l 152 662 l 680 662 l 637 497 l 620 497 q 618 545 604 565 q 584 597 550 611 q 516 625 440 625 z"},"s":{"x_min":0,"x_max":389,"ha":389,"o":"m 372 453 l 351 302 l 333 302 q 329 360 297 394 q 265 428 228 428 q 206 428 191 415 q 176 401 176 383 q 176 367 183 354 q 189 340 211 316 q 288 233 305 202 q 321 171 321 135 q 321 97 302 62 q 282 28 243 7 q 205 -14 163 -14 q 134 -14 93 -2 q 65 5 52 5 q 40 5 33 2 q 26 -2 18 -14 l 0 -14 l 23 149 l 39 149 q 56 90 71 65 q 86 40 111 25 q 136 10 159 10 q 186 10 203 27 q 221 43 221 67 q 221 90 209 111 q 198 133 156 178 q 99 240 81 274 q 68 298 68 330 q 68 382 107 417 q 145 453 214 453 q 245 453 289 442 q 311 437 324 437 q 343 437 354 453 z"},">":{"x_min":0,"x_max":570,"ha":570,"o":"m 39 568 l 572 351 l 572 311 l 39 90 l 39 158 l 452 330 l 39 500 z"},"l":{"x_min":0,"x_max":278,"ha":278,"o":"m 316 677 l 155 127 q 141 79 141 66 q 141 60 145 56 q 149 51 154 51 q 163 51 170 58 q 194 77 223 123 l 242 114 q 195 40 150 8 q 120 -14 85 -14 q 53 -14 34 4 q 15 21 15 45 q 15 63 26 104 l 158 554 q 169 591 169 603 q 169 615 159 622 q 145 631 117 630 l 123 648 l 287 677 z"},"8":{"x_min":0,"x_max":500,"ha":500,"o":"m 206 346 q 175 387 159 426 q 144 464 144 501 q 144 576 194 626 q 244 676 327 676 q 403 676 447 634 q 491 592 491 533 q 491 494 472 462 q 454 431 419 406 q 396 391 350 374 q 407 300 421 269 q 435 238 435 200 q 435 110 373 48 q 312 -14 218 -14 q 133 -14 85 31 q 37 77 37 145 q 37 191 58 230 q 80 270 121 301 q 151 324 206 346 z m 330 396 q 355 415 364 436 q 382 482 382 559 q 382 607 367 627 q 353 646 333 646 q 307 646 293 627 q 269 594 269 537 q 269 501 282 471 q 294 440 330 396 z m 223 324 q 198 302 188 286 q 172 261 159 212 q 146 163 146 107 q 146 62 163 40 q 181 18 210 18 q 245 18 271 50 q 306 95 306 157 q 306 198 290 233 q 273 269 223 324 z"},"\\":{"x_min":0,"x_max":278,"ha":278,"o":"m 137 676 l 203 -15 l 144 -15 l 78 676 z"},"e":{"x_min":0,"x_max":444,"ha":444,"o":"m 156 183 q 152 151 152 131 q 152 94 173 72 q 194 50 230 50 q 264 50 299 67 q 333 83 378 125 l 393 112 q 337 44 284 15 q 230 -14 166 -14 q 84 -14 53 25 q 22 64 22 116 q 22 196 69 276 q 115 356 196 404 q 276 453 357 453 q 398 453 419 433 q 440 414 440 384 q 440 348 419 314 q 391 269 348 240 q 305 212 252 198 q 216 188 156 183 z m 161 208 q 204 215 227 226 q 251 237 274 261 q 296 285 313 322 q 330 359 330 391 q 330 405 322 413 q 314 420 303 420 q 279 420 250 388 q 196 328 161 208 z"},"b":{"x_min":0,"x_max":500,"ha":500,"o":"m 316 677 l 231 383 q 270 425 296 439 q 322 453 352 453 q 411 453 440 410 q 469 368 469 313 q 469 181 373 78 q 288 -14 180 -14 q 99 -14 9 34 l 159 552 q 169 588 169 602 q 169 614 160 621 q 146 630 118 629 l 124 648 l 287 677 z m 128 29 q 151 14 170 14 q 196 14 213 24 q 241 41 272 84 q 302 128 323 189 q 343 251 343 312 q 343 347 328 365 q 312 383 292 383 q 257 383 232 350 q 215 328 195 258 z"},"%":{"x_min":0,"x_max":833,"ha":833,"o":"m 779 677 l 170 -27 l 112 -27 l 718 677 z m 221 317 q 171 317 139 351 q 108 384 108 446 q 108 542 172 614 q 225 673 297 673 q 350 673 382 640 q 415 607 415 548 q 415 450 355 384 q 295 317 221 317 z m 224 343 q 240 343 250 351 q 265 363 275 389 q 280 401 313 519 q 332 585 332 611 q 332 627 323 637 q 313 647 300 647 q 285 647 276 641 q 260 628 248 601 q 240 581 208 467 q 191 406 191 378 q 191 362 201 353 q 210 343 224 343 z m 584 -28 q 536 -28 504 6 q 473 41 473 103 q 473 196 532 262 q 592 329 662 329 q 713 329 747 295 q 780 261 780 204 q 780 109 719 40 q 657 -28 584 -28 z m 587 0 q 602 0 613 8 q 628 21 640 49 q 647 65 680 177 q 697 238 697 265 q 697 282 687 293 q 676 304 662 304 q 645 304 630 287 q 616 270 594 197 q 557 76 557 35 q 557 19 566 9 q 574 0 587 0 z"},"m":{"x_min":0,"x_max":778,"ha":778,"o":"m 266 453 l 203 243 q 266 339 295 373 q 337 422 365 438 q 393 453 420 453 q 452 453 466 434 q 480 415 480 392 q 480 368 467 321 l 445 243 q 509 340 537 373 q 580 422 611 440 q 633 453 658 453 q 684 453 701 435 q 719 418 719 390 q 719 359 704 309 l 650 127 q 638 86 638 75 q 638 71 641 67 q 644 64 648 64 q 653 64 657 67 q 675 82 694 109 q 699 115 708 127 l 724 116 q 690 53 650 24 q 610 -5 576 -5 q 546 -5 528 11 q 510 27 510 49 q 510 70 522 113 l 577 303 q 588 343 588 353 q 588 356 585 359 q 582 362 578 362 q 572 362 565 359 q 556 354 537 334 q 518 313 481 260 q 445 208 431 178 q 417 148 404 101 l 374 0 l 250 0 l 342 319 q 349 345 349 354 q 349 358 346 361 q 343 364 339 364 q 321 364 282 316 q 223 243 174 140 l 134 0 l 10 0 l 102 314 q 115 360 115 380 q 115 388 111 393 q 107 399 99 402 q 90 405 65 405 l 70 424 l 236 453 z"},"#":{"x_min":0,"x_max":500,"ha":500,"o":"m 63 -14 l 105 193 l 39 193 l 39 258 l 118 258 l 147 401 l 39 401 l 39 464 l 160 464 l 202 676 l 267 676 l 224 464 l 368 464 l 410 676 l 474 676 l 431 464 l 500 464 l 500 401 l 419 401 l 390 258 l 500 258 l 500 193 l 377 193 l 335 -14 l 271 -14 l 312 193 l 170 193 l 126 -14 z m 183 258 l 327 258 l 355 401 l 211 401 z"},",":{"x_min":0,"x_max":250,"ha":250,"o":"m -17 -161 l -28 -140 q 46 -98 64 -76 q 79 -59 79 -42 q 79 -22 53 1 q 28 24 20 40 q 14 52 14 71 q 14 103 37 126 q 61 149 95 149 q 127 149 152 123 q 176 97 176 59 q 176 -2 129 -62 q 83 -121 -17 -161 z"},"n":{"x_min":0,"x_max":556,"ha":556,"o":"m 267 453 l 207 243 q 268 335 298 369 q 342 417 375 435 q 407 453 435 453 q 460 453 479 434 q 497 415 497 385 q 497 357 485 318 l 422 110 q 415 83 415 74 q 415 69 418 65 q 422 62 426 62 q 431 62 436 65 q 453 80 471 105 q 475 112 485 126 l 503 115 q 432 -6 353 -6 q 322 -6 305 10 q 288 25 288 49 q 288 69 300 110 l 361 318 q 367 339 367 349 q 367 354 363 358 q 358 362 353 362 q 334 362 308 337 q 240 272 177 145 l 137 0 l 13 0 l 104 313 q 117 360 117 379 q 117 388 113 393 q 109 399 101 402 q 92 405 67 405 l 73 424 l 237 453 z"},"h":{"x_min":0,"x_max":556,"ha":556,"o":"m 329 677 l 202 237 q 268 334 297 369 q 342 418 374 435 q 406 453 435 453 q 460 453 478 434 q 496 415 496 384 q 496 357 484 318 l 422 110 q 414 83 414 73 q 414 69 417 65 q 420 62 425 62 q 431 62 437 66 q 452 79 470 105 q 474 112 484 126 l 503 115 q 461 46 423 20 q 386 -6 352 -6 q 322 -6 305 10 q 288 25 288 49 q 288 70 299 110 l 360 318 q 366 339 366 349 q 366 354 362 359 q 357 363 352 363 q 334 363 304 333 q 240 273 177 145 l 133 0 l 12 0 l 172 552 q 182 587 182 602 q 182 614 172 621 q 160 630 133 629 l 137 648 l 299 677 z"},"z":{"x_min":0,"x_max":389,"ha":389,"o":"m 397 439 l 120 111 q 151 102 166 83 q 186 59 194 10 q 203 -38 214 -51 q 226 -64 237 -64 q 245 -64 252 -57 q 259 -50 259 -41 q 259 -32 253 -11 q 249 3 249 17 q 249 44 266 62 q 284 81 308 81 q 330 81 345 65 q 360 48 360 22 q 360 -19 323 -52 q 286 -85 231 -85 q 169 -85 109 -27 q 84 -4 69 4 q 61 8 47 8 q 35 8 21 0 l -10 0 l 273 336 l 171 336 q 128 336 109 325 q 89 314 72 283 l 51 283 l 92 439 z"},"B":{"x_min":0,"x_max":667,"ha":667,"o":"m 155 662 l 417 662 q 504 662 542 653 q 591 641 618 607 q 645 573 645 530 q 645 495 624 458 q 602 422 559 398 q 517 375 428 354 q 520 329 556 288 q 591 248 591 194 q 591 144 556 94 q 521 45 463 23 q 405 0 250 0 l -25 0 l -19 18 q 21 18 38 25 q 56 33 66 48 q 77 63 91 112 l 209 520 q 227 582 227 603 q 227 620 213 631 q 198 642 150 644 z m 305 370 q 371 371 409 391 q 448 411 471 456 q 494 502 494 542 q 494 581 470 604 q 446 628 406 627 l 379 626 z m 293 333 l 208 39 q 233 38 245 38 q 354 38 396 98 q 439 159 439 229 q 439 262 423 287 q 406 313 380 323 q 354 333 293 333 z"},"K":{"x_min":0,"x_max":667,"ha":667,"o":"m 613 0 l 327 0 l 332 18 q 360 21 374 34 q 388 48 388 69 q 388 91 373 139 l 302 364 l 232 123 q 221 82 221 64 q 221 43 237 31 q 253 19 295 18 l 290 0 l -32 0 l -27 18 q 12 19 31 28 q 50 38 61 57 q 72 77 88 132 l 199 517 q 218 583 218 602 q 218 618 203 630 q 188 643 145 644 l 150 662 l 461 662 l 456 644 q 425 644 408 635 q 386 622 373 598 q 363 582 347 523 l 302 365 l 475 523 q 525 569 531 579 q 539 591 539 604 q 539 619 528 630 q 518 641 492 644 l 497 662 l 747 662 l 741 644 q 712 642 694 636 q 670 628 640 609 q 609 590 577 565 l 532 523 l 427 429 l 505 185 q 543 64 564 42 q 585 20 619 18 z"},"R":{"x_min":0,"x_max":667,"ha":667,"o":"m 287 323 l 229 123 q 216 80 216 60 q 216 42 231 30 q 246 19 294 18 l 287 0 l -32 0 l -26 18 q 22 18 44 37 q 66 55 85 120 l 208 544 q 218 580 218 601 q 218 620 206 630 q 193 641 146 644 l 151 662 l 426 662 q 543 662 591 621 q 639 580 639 516 q 639 448 583 393 q 548 359 459 334 l 519 133 q 542 53 560 36 q 578 20 620 18 l 620 0 l 414 0 l 320 323 l 304 322 q 298 322 287 323 z m 294 353 q 311 352 323 352 q 394 352 440 400 q 486 449 486 528 q 486 575 461 600 q 437 624 397 624 q 387 624 374 624 z"},"T":{"x_min":0,"x_max":611,"ha":611,"o":"m 160 662 l 693 662 l 643 484 l 625 484 q 626 498 626 509 q 626 560 596 588 q 566 616 496 620 l 348 121 q 336 80 336 60 q 336 41 351 30 q 366 19 413 18 l 408 0 l 80 0 l 85 18 q 136 18 159 37 q 182 56 201 121 l 348 620 q 272 617 221 586 q 169 556 127 484 l 108 484 z"},"P":{"x_min":0,"x_max":611,"ha":611,"o":"m 284 304 l 230 120 q 219 81 219 64 q 219 42 233 31 q 248 19 300 18 l 293 0 l -30 0 l -24 18 q 17 19 34 26 q 51 34 62 51 q 70 62 87 120 l 209 540 q 222 582 222 600 q 222 618 206 631 q 190 643 147 644 l 153 662 l 415 662 q 523 662 570 635 q 644 592 644 506 q 644 423 571 360 q 498 296 374 296 q 337 296 284 304 z m 293 342 q 325 338 346 338 q 414 338 452 399 q 491 461 491 528 q 491 573 466 598 q 441 624 397 624 q 388 624 374 623 z"},"|":{"x_min":0,"x_max":220,"ha":220,"o":"m 78 -216 l 78 677 l 141 677 l 141 -216 z"},"t":{"x_min":0,"x_max":278,"ha":278,"o":"m 287 572 l 248 439 l 312 439 l 294 383 l 231 383 l 150 100 q 142 73 142 60 q 142 53 146 49 q 151 44 156 44 q 165 44 173 51 q 196 68 226 110 l 243 100 q 209 41 168 14 q 128 -14 89 -14 q 56 -14 37 3 q 19 20 19 46 q 19 74 32 119 l 109 383 l 42 383 l 52 419 q 115 442 158 473 q 201 503 261 572 z"},"M":{"x_min":0,"x_max":889,"ha":889,"o":"m 378 662 l 427 207 l 742 662 l 974 662 l 968 644 q 920 644 896 624 q 871 603 853 542 l 731 119 q 719 79 719 59 q 719 41 734 30 q 749 19 792 18 l 787 0 l 457 0 l 462 18 q 516 18 541 38 q 566 59 584 119 l 708 548 l 330 0 l 310 0 l 250 559 l 124 119 q 116 92 116 74 q 116 49 133 34 q 149 20 190 18 l 185 0 l -34 0 l -29 18 q 10 20 31 35 q 68 62 85 119 l 228 608 q 208 630 191 637 q 175 644 136 644 l 142 662 z"},"g":{"x_min":0,"x_max":500,"ha":500,"o":"m 387 423 l 517 423 l 501 369 l 434 369 q 449 340 449 314 q 449 270 425 232 q 401 195 354 172 q 307 150 249 150 q 234 150 216 152 q 197 154 176 158 q 144 142 135 132 q 129 125 129 118 q 129 109 137 103 q 149 91 174 86 q 274 64 306 51 q 349 33 371 5 q 394 -23 394 -63 q 394 -125 337 -170 q 281 -216 164 -216 q 45 -216 -11 -177 q -52 -148 -52 -109 q -52 -80 -25 -54 q 1 -29 89 -9 q 59 7 49 21 q 35 40 35 60 q 35 92 61 117 q 87 142 148 167 q 101 186 79 216 q 58 246 58 286 q 58 328 84 366 q 109 405 159 429 q 209 453 274 453 q 316 453 348 443 q 365 438 387 423 z m 285 429 q 261 429 244 413 q 218 389 198 333 q 178 277 178 227 q 178 203 192 189 q 206 175 227 175 q 247 175 261 188 q 289 215 310 274 q 330 333 330 381 q 330 402 317 416 q 304 429 285 429 z m 116 -21 q 70 -39 53 -60 q 36 -81 36 -105 q 36 -137 70 -162 q 103 -188 176 -188 q 237 -188 265 -166 q 292 -144 292 -114 q 292 -87 267 -71 q 242 -54 170 -36 q 137 -27 116 -21 z"},"j":{"x_min":0,"x_max":278,"ha":278,"o":"m 225 677 q 255 677 276 656 q 297 635 297 604 q 297 575 276 553 q 255 532 225 532 q 195 532 174 553 q 152 575 152 604 q 152 635 174 656 q 195 677 225 677 z m 266 453 l 162 68 q 130 -49 90 -118 q 62 -166 15 -191 q -31 -216 -81 -216 q -122 -216 -141 -200 q -161 -184 -161 -163 q -161 -143 -145 -127 q -128 -111 -103 -111 q -83 -111 -72 -121 q -61 -132 -61 -146 q -61 -161 -74 -175 q -80 -181 -80 -184 q -80 -187 -76 -190 q -73 -192 -67 -192 q -45 -192 -30 -168 q -19 -152 8 -47 l 108 329 q 119 370 119 380 q 119 390 108 399 q 97 408 80 408 q 74 408 67 407 l 72 426 l 237 453 z"},"i":{"x_min":0,"x_max":278,"ha":278,"o":"m 225 677 q 255 677 276 656 q 296 635 296 605 q 296 576 275 555 q 254 534 225 534 q 195 534 174 555 q 153 576 153 605 q 153 635 174 656 q 195 677 225 677 z m 255 453 l 155 105 q 146 76 146 66 q 146 61 151 56 q 155 52 160 52 q 168 52 177 59 q 199 77 229 125 l 246 115 q 172 -14 89 -14 q 58 -14 39 4 q 20 22 20 49 q 20 67 28 95 l 96 329 q 106 362 106 379 q 106 390 97 398 q 87 407 71 407 q 64 407 54 406 l 60 426 l 226 453 z"},"y":{"x_min":0,"x_max":444,"ha":444,"o":"m 25 409 l 176 453 q 194 430 201 410 q 214 375 220 314 q 230 194 234 58 q 286 127 354 240 q 374 274 374 305 q 374 324 350 341 q 327 358 321 367 q 315 377 315 392 q 315 417 333 435 q 351 453 376 453 q 403 453 423 432 q 442 412 442 384 q 442 351 424 308 q 406 265 338 160 q 252 25 169 -73 q 116 -135 83 -163 q 50 -190 15 -207 q -6 -216 -26 -216 q -54 -216 -74 -196 q -94 -177 -94 -150 q -94 -123 -76 -104 q -58 -86 -34 -86 q -4 -86 21 -117 q 37 -138 48 -138 q 59 -138 70 -132 q 84 -124 111 -96 q 114 -35 114 -3 q 114 39 110 115 l 102 301 q 97 352 80 375 q 66 391 44 391 q 36 391 25 390 z"},"@":{"x_min":0,"x_max":832,"ha":832,"o":"m 527 452 l 646 457 l 557 150 q 542 99 542 74 q 542 58 553 47 q 564 35 581 35 q 615 35 668 74 q 722 113 757 185 q 792 257 792 338 q 792 473 705 560 q 618 646 479 646 q 359 646 261 590 q 163 534 105 426 q 47 319 47 196 q 47 27 155 -81 q 263 -188 429 -188 q 566 -188 675 -115 q 784 -41 830 81 l 859 81 q 801 -63 689 -139 q 577 -216 428 -216 q 240 -216 118 -94 q -4 27 -4 213 q -4 341 57 450 q 117 559 227 618 q 336 677 469 677 q 577 677 657 634 q 738 591 779 513 q 819 435 819 348 q 819 247 776 163 q 732 80 667 40 q 602 0 526 0 q 478 0 453 24 q 427 48 427 85 q 427 112 439 154 q 398 87 376 61 q 345 26 315 10 q 295 0 271 0 q 236 0 212 28 q 188 55 188 108 q 188 163 204 216 q 220 268 248 314 q 275 360 311 397 q 347 434 392 458 q 415 470 441 470 q 468 470 486 453 q 504 436 510 394 z m 453 435 q 435 435 417 415 q 392 387 364 322 q 314 205 314 134 q 314 113 323 101 q 333 89 343 89 q 353 89 370 103 q 395 122 423 167 q 452 213 470 268 q 488 324 488 371 q 488 404 475 422 q 466 435 453 435 z"},".":{"x_min":0,"x_max":250,"ha":250,"o":"m 67 146 q 101 146 124 123 q 147 100 147 66 q 147 33 124 10 q 100 -14 67 -14 q 34 -14 10 10 q -13 33 -13 66 q -13 100 10 123 q 34 146 67 146 z"},"p":{"x_min":0,"x_max":500,"ha":500,"o":"m 61 425 l 222 453 l 251 453 l 229 373 q 281 420 313 436 q 346 453 378 453 q 424 453 449 417 q 474 382 474 331 q 474 190 377 82 q 291 -14 189 -14 q 171 -14 159 -10 q 146 -7 123 5 l 98 -83 q 84 -131 84 -156 q 84 -171 95 -180 q 105 -189 145 -196 l 141 -214 l -122 -214 l -117 -196 q -86 -195 -65 -176 q -44 -157 -26 -94 l 93 317 q 106 363 106 382 q 106 390 102 396 q 98 401 90 404 q 83 406 55 406 z m 137 50 q 151 26 163 18 q 175 10 190 10 q 206 10 221 19 q 236 27 258 53 q 280 79 300 120 q 320 160 333 212 q 345 263 345 310 q 345 348 331 365 q 318 382 299 382 q 282 382 267 373 q 245 360 215 326 z"},"X":{"x_min":0,"x_max":667,"ha":667,"o":"m 301 306 l 198 546 q 170 610 154 625 q 137 641 101 644 l 101 662 l 393 662 l 388 644 q 357 642 346 632 q 335 622 335 606 q 335 587 353 546 l 411 408 l 493 482 q 561 544 580 575 q 591 593 591 608 q 591 621 579 632 q 567 643 541 644 l 547 662 l 763 662 l 759 644 q 734 640 714 626 q 681 605 604 535 l 426 372 l 526 139 q 561 59 578 42 q 596 25 630 18 l 625 0 l 332 0 l 337 18 q 368 19 382 31 q 396 42 396 60 q 396 84 369 146 l 315 271 l 193 157 q 135 104 126 87 q 116 71 116 56 q 116 42 130 30 q 144 19 175 18 l 169 0 l -61 0 l -56 18 q -30 23 -11 34 q 34 62 101 123 z"},"*":{"x_min":0,"x_max":500,"ha":500,"o":"m 305 484 q 304 513 300 527 q 295 542 280 573 q 264 604 264 621 q 264 643 280 660 q 295 677 314 677 q 335 677 351 661 q 366 646 366 620 q 366 600 351 572 q 336 543 332 529 q 328 514 325 484 q 353 496 364 504 q 376 512 399 537 q 430 569 458 569 q 479 569 494 555 q 509 541 509 521 q 509 500 491 484 q 473 468 444 468 q 435 468 410 470 q 398 470 385 470 q 367 470 330 468 q 351 444 363 435 q 375 426 403 412 q 432 397 444 380 q 453 368 453 349 q 453 328 439 314 q 425 299 405 299 q 384 299 367 317 q 350 334 344 378 q 340 407 335 420 q 331 434 315 459 q 299 433 294 419 q 289 405 285 378 q 278 334 262 317 q 246 301 225 301 q 205 301 190 314 q 176 328 176 347 q 176 367 187 382 q 198 397 227 414 q 257 430 268 438 q 279 447 301 468 l 249 470 q 235 470 223 470 q 194 468 183 468 q 155 468 138 483 q 120 499 120 521 q 120 541 135 555 q 149 569 171 569 q 202 569 230 540 q 258 511 267 504 q 278 496 305 484 z"},"Y":{"x_min":0,"x_max":611,"ha":611,"o":"m 265 292 l 209 534 q 195 596 175 619 q 160 637 120 644 l 125 662 l 443 662 l 437 644 q 391 644 369 625 q 348 606 348 581 q 348 564 357 524 l 400 329 l 507 476 q 548 533 558 556 q 568 579 568 597 q 568 614 555 627 q 542 641 513 644 l 518 662 l 717 662 l 717 644 q 690 641 670 626 q 651 612 594 534 l 406 275 l 362 122 q 348 74 348 66 q 348 45 364 32 q 380 18 418 18 l 437 18 l 432 0 l 93 0 l 98 18 q 135 18 157 28 q 180 39 191 55 q 199 67 214 118 z"},"c":{"x_min":0,"x_max":444,"ha":444,"o":"m 375 118 l 390 104 q 343 48 297 21 q 236 -14 170 -14 q 126 -14 93 5 q 59 24 42 58 q 26 92 26 127 q 26 208 70 285 q 113 362 185 407 q 256 453 325 453 q 380 453 408 428 q 436 404 436 368 q 436 335 415 312 q 394 289 368 289 q 345 289 330 304 q 315 318 315 338 q 315 365 342 384 q 360 398 360 408 q 360 417 353 422 q 343 430 327 430 q 286 430 250 397 q 202 353 177 286 q 151 218 151 158 q 151 110 177 81 q 203 53 239 53 q 270 53 306 69 q 343 85 375 118 z"},"!":{"x_min":0,"x_max":389,"ha":389,"o":"m 180 189 l 161 189 q 185 318 197 451 q 208 585 233 631 q 258 677 297 677 q 318 677 335 659 q 352 640 352 614 q 352 592 343 566 q 335 541 292 451 q 221 302 180 189 z m 135 146 q 168 146 191 122 q 214 99 214 66 q 214 33 191 10 q 167 -14 135 -14 q 102 -14 78 10 q 55 33 55 66 q 55 99 78 122 q 102 146 135 146 z"},"/":{"x_min":0,"x_max":278,"ha":278,"o":"m 415 676 l -12 -15 l -81 -15 l 346 676 z"},"[":{"x_min":0,"x_max":333,"ha":333,"o":"m -29 -184 l 217 662 l 429 662 l 423 644 l 407 644 q 372 644 354 636 q 337 629 325 612 q 313 596 300 551 l 119 -69 q 104 -122 104 -139 q 104 -146 108 -151 q 113 -158 124 -162 q 132 -165 157 -165 l 187 -165 l 182 -184 z"},"6":{"x_min":0,"x_max":500,"ha":500,"o":"m 510 681 l 510 662 q 436 642 378 588 q 307 521 256 407 q 301 422 334 422 q 390 422 427 381 q 463 339 463 264 q 463 166 409 85 q 341 -14 230 -14 q 154 -14 107 39 q 60 91 60 187 q 60 290 106 386 q 151 482 222 549 q 292 615 373 649 q 436 676 510 681 z m 240 370 q 207 283 185 192 q 170 130 170 90 q 170 53 186 35 q 202 17 226 17 q 245 17 260 30 q 285 53 307 120 q 340 227 340 297 q 340 333 320 358 q 305 377 283 377 q 266 377 240 370 z"},"r":{"x_min":0,"x_max":389,"ha":389,"o":"m 237 453 l 163 178 q 254 379 300 425 q 327 453 356 453 q 377 453 390 438 q 402 423 402 396 q 402 348 379 316 q 365 295 347 295 q 327 295 317 313 q 308 332 304 335 q 300 338 295 338 q 291 338 285 335 q 274 329 257 306 q 240 284 214 230 q 189 177 175 140 q 161 104 135 0 l 17 0 l 98 324 q 106 360 106 372 q 106 385 102 392 q 97 399 89 403 q 81 406 56 406 l 60 420 l 208 453 z"},"2":{"x_min":0,"x_max":500,"ha":500,"o":"m 355 0 l 4 0 l 4 18 q 141 145 235 251 q 314 340 335 386 q 355 433 355 480 q 355 525 327 553 q 299 581 257 581 q 189 581 141 506 l 123 514 q 148 586 188 624 q 245 676 320 676 q 391 676 437 632 q 483 589 483 532 q 483 481 460 432 q 438 383 368 309 q 314 252 150 112 l 277 112 q 339 112 364 126 q 388 140 410 182 l 433 182 z"},"{":{"x_min":0,"x_max":348,"ha":348,"o":"m 456 677 l 450 655 q 405 647 375 626 q 346 605 333 576 q 320 547 317 480 q 313 414 297 379 q 282 345 251 315 q 221 286 184 267 q 156 253 99 239 q 158 219 182 196 q 218 162 218 110 q 218 72 179 -1 q 140 -73 140 -109 q 140 -137 155 -154 q 170 -171 210 -179 l 204 -202 q 156 -203 131 -194 q 89 -180 66 -150 q 42 -120 42 -78 q 42 -38 84 37 q 126 112 126 152 q 126 180 109 199 q 92 217 55 223 l 63 253 q 105 260 136 281 q 166 303 182 337 q 197 372 200 440 q 204 509 218 542 q 233 574 269 608 q 306 642 351 658 q 396 675 456 677 z"},"9":{"x_min":0,"x_max":500,"ha":500,"o":"m 42 -14 l 42 6 q 117 26 181 86 q 246 146 297 260 q 251 245 219 245 q 164 245 126 286 q 89 328 89 403 q 89 501 145 582 q 211 681 323 681 q 399 681 446 628 q 493 576 493 480 q 493 376 447 281 q 401 185 331 118 q 261 52 181 18 q 118 -9 42 -14 z m 313 297 q 346 384 368 475 q 382 537 382 577 q 382 614 366 632 q 351 650 327 650 q 308 650 293 637 q 268 614 246 547 q 212 440 212 370 q 212 333 233 309 q 248 290 270 290 q 287 290 313 297 z"}," ":{"x_min":0,"x_max":250,"ha":250,"o":""},"I":{"x_min":0,"x_max":389,"ha":389,"o":"m 138 644 l 144 662 l 467 662 l 460 644 q 417 644 393 625 q 370 605 353 543 l 231 119 q 218 74 218 59 q 218 42 232 32 q 250 19 298 18 l 293 0 l -35 0 l -30 18 q 20 18 42 37 q 65 56 84 119 l 206 543 q 217 582 217 602 q 217 620 204 630 q 190 641 138 644 z"},"H":{"x_min":0,"x_max":778,"ha":778,"o":"m 297 357 l 540 357 l 593 542 q 604 581 604 601 q 604 620 591 630 q 578 641 527 644 l 533 662 l 862 662 l 856 644 q 808 644 783 624 q 758 603 741 542 l 618 119 q 605 77 605 59 q 605 41 619 32 q 636 19 681 18 l 676 0 l 353 0 l 360 18 q 407 18 429 36 q 452 55 470 119 l 527 316 l 286 316 l 229 119 q 217 78 217 59 q 217 41 232 30 q 247 19 291 18 l 286 0 l -32 0 l -27 18 q 20 18 42 36 q 63 55 82 119 l 205 542 q 216 579 216 600 q 216 620 203 630 q 190 641 141 644 l 146 662 l 470 662 l 463 644 q 418 644 395 625 q 372 605 353 542 z"},"4":{"x_min":0,"x_max":500,"ha":500,"o":"m 234 140 l 18 140 l 42 222 l 438 676 l 502 676 l 369 222 l 446 222 l 420 140 l 345 140 l 300 -14 l 189 -14 z m 259 222 l 340 511 l 89 222 z"},"~":{"x_min":0,"x_max":570,"ha":570,"o":"m 523 346 l 551 346 q 548 269 510 229 q 473 188 419 188 q 394 188 365 197 q 335 205 236 247 q 165 276 133 276 q 100 276 78 256 q 56 236 47 189 l 19 189 q 23 269 59 308 q 95 347 146 347 q 172 347 197 340 q 246 326 333 289 q 380 268 405 261 q 419 257 437 257 q 471 257 495 280 q 519 303 523 346 z"},"D":{"x_min":0,"x_max":722,"ha":722,"o":"m -36 0 l -30 18 q 18 18 42 38 q 67 58 83 112 l 203 529 q 215 570 215 597 q 215 619 201 630 q 188 641 131 644 l 137 662 l 364 662 q 543 662 622 590 q 702 517 702 386 q 702 294 665 231 q 593 109 495 55 q 396 0 241 0 z m 377 623 l 232 121 q 222 86 222 71 q 222 58 233 49 q 248 38 276 38 q 345 38 399 81 q 469 136 505 229 q 542 323 542 415 q 542 481 521 530 q 500 580 456 605 q 425 623 377 623 z"},"^":{"x_min":0,"x_max":570,"ha":570,"o":"m 102 325 l 302 676 l 342 676 l 540 325 l 462 325 l 318 575 l 176 325 z"},"0":{"x_min":0,"x_max":500,"ha":500,"o":"m 354 676 q 401 676 435 648 q 469 621 484 575 q 499 529 499 484 q 499 406 478 324 q 458 241 422 172 q 386 103 342 56 q 314 26 274 6 q 234 -14 193 -14 q 154 -14 123 10 q 91 33 73 78 q 55 123 55 174 q 55 287 96 399 q 129 493 179 561 q 229 629 271 653 q 312 676 354 676 z m 357 643 q 343 643 332 637 q 321 631 309 614 q 296 597 278 542 q 243 440 201 293 q 169 181 163 149 q 153 104 153 69 q 153 45 166 32 q 179 18 198 18 q 218 18 231 29 q 257 51 274 103 q 314 226 375 440 q 402 535 402 589 q 402 614 389 628 q 376 643 357 643 z"},"F":{"x_min":0,"x_max":667,"ha":667,"o":"m 409 625 l 336 375 q 411 376 433 381 q 470 388 500 412 q 529 436 549 478 l 568 478 l 493 216 l 473 216 q 478 242 478 257 q 478 287 466 305 q 453 323 434 330 q 414 336 326 338 l 267 132 l 255 90 q 252 78 252 66 q 252 49 259 40 q 266 30 280 24 q 295 19 336 18 l 331 0 l 0 0 l 5 18 q 53 18 75 36 q 97 54 115 114 l 233 519 q 251 583 252 601 q 251 618 237 630 q 222 642 177 644 l 182 662 l 723 662 l 678 487 l 660 487 q 657 542 643 569 q 629 595 596 610 q 564 625 493 625 z"},"`":{"x_min":0,"x_max":333,"ha":333,"o":"m 119 677 l 263 677 l 315 508 l 277 508 z"},"k":{"x_min":0,"x_max":500,"ha":500,"o":"m 326 677 l 191 215 l 303 319 l 340 352 q 356 369 362 380 q 366 388 366 394 q 366 404 356 411 q 347 418 309 420 l 314 439 l 513 439 l 508 420 q 473 412 451 401 q 434 393 409 374 q 372 345 356 330 l 334 310 l 364 175 q 381 97 390 84 q 395 77 402 77 q 419 77 443 117 q 446 123 452 132 l 470 121 q 434 53 388 17 q 357 -7 332 -7 q 307 -7 291 11 q 274 29 257 104 l 233 215 l 179 167 l 130 0 l 6 0 l 168 551 q 178 586 178 599 q 178 610 173 617 q 168 624 160 627 q 151 631 126 631 l 130 649 l 296 677 z"},"u":{"x_min":0,"x_max":556,"ha":556,"o":"m 266 453 l 171 121 q 164 98 164 89 q 164 84 167 82 q 171 78 177 78 q 199 78 237 118 q 291 176 350 285 l 394 435 l 518 439 l 424 117 q 412 76 412 70 q 412 66 416 62 q 419 58 423 58 q 430 58 437 63 q 454 78 483 121 l 500 109 q 432 -14 350 -14 q 320 -14 302 2 q 285 17 285 42 q 285 68 297 109 l 321 191 q 258 99 229 67 q 185 19 155 2 q 125 -14 98 -14 q 72 -14 53 5 q 34 24 34 54 q 34 79 46 121 l 102 316 q 115 364 115 380 q 115 388 111 393 q 107 399 98 402 q 89 405 65 405 l 70 424 l 236 453 z"},"]":{"x_min":0,"x_max":333,"ha":333,"o":"m 347 662 l 101 -184 l -111 -184 l -105 -165 l -89 -165 q -54 -165 -37 -157 q -20 -150 -8 -134 q 4 -117 18 -72 l 199 548 q 214 600 214 617 q 214 624 210 629 q 205 637 194 641 q 186 644 161 644 l 131 644 l 136 662 z"},"U":{"x_min":0,"x_max":722,"ha":722,"o":"m 584 662 l 809 662 l 804 644 q 766 641 745 625 q 711 601 694 543 l 606 240 q 565 98 495 41 q 425 -15 316 -15 q 255 -15 208 2 q 161 20 139 42 q 117 64 105 96 q 94 129 94 151 q 94 186 113 253 l 197 543 q 208 583 208 602 q 208 620 195 630 q 181 641 130 644 l 135 662 l 465 662 l 459 644 q 412 644 386 624 q 361 603 344 543 l 260 253 q 239 181 239 137 q 239 97 271 67 q 303 37 361 37 q 414 37 450 56 q 487 76 512 110 q 544 157 569 243 l 656 543 q 663 569 663 586 q 663 617 642 633 q 626 644 579 644 z"},"o":{"x_min":0,"x_max":500,"ha":500,"o":"m 329 453 q 367 453 401 435 q 435 417 452 385 q 470 354 470 315 q 470 236 426 157 q 381 78 309 32 q 237 -14 164 -14 q 97 -14 61 26 q 24 65 24 123 q 24 190 52 250 q 79 309 120 353 q 162 397 216 425 q 271 453 329 453 z m 309 427 q 283 427 266 412 q 231 381 188 268 q 146 155 146 64 q 146 42 159 27 q 173 12 191 12 q 210 12 225 24 q 247 42 278 103 q 309 164 329 238 q 349 312 349 374 q 349 399 337 413 q 325 427 309 427 z"},"N":{"x_min":0,"x_max":722,"ha":722,"o":"m 356 662 l 563 221 l 657 541 q 664 567 664 588 q 664 612 649 627 q 633 642 596 644 l 601 662 l 811 662 l 806 644 q 766 642 740 622 q 714 602 696 541 l 534 -7 l 516 -7 l 250 557 l 122 117 q 115 94 115 76 q 115 50 133 34 q 150 18 188 18 l 184 0 l -32 0 l -28 18 q 0 18 12 23 q 32 31 52 53 q 71 75 83 117 l 224 598 q 198 627 180 635 q 163 644 127 644 l 133 662 z"},"+":{"x_min":0,"x_max":570,"ha":570,"o":"m 39 363 l 274 363 l 274 598 l 338 598 l 338 363 l 573 363 l 573 299 l 338 299 l 338 66 l 274 66 l 274 299 l 39 299 z"},"G":{"x_min":0,"x_max":722,"ha":722,"o":"m 747 677 l 701 465 l 683 465 q 679 558 641 598 q 603 639 535 639 q 464 639 394 590 q 324 540 274 437 q 225 333 225 220 q 225 122 269 71 q 312 19 372 19 q 396 19 432 33 l 483 208 q 496 252 496 266 q 496 284 480 296 q 465 309 427 309 l 432 327 l 718 327 l 713 309 q 688 307 674 299 q 659 291 651 275 q 646 266 636 228 l 576 24 q 473 -15 360 -15 q 272 -15 211 17 q 150 48 110 117 q 69 186 69 274 q 69 461 236 583 q 366 677 532 677 q 561 677 585 674 q 603 672 648 661 q 678 653 688 653 q 710 653 729 677 z"},"q":{"x_min":0,"x_max":500,"ha":500,"o":"m 483 439 l 339 -55 q 325 -105 322 -119 q 317 -140 317 -155 q 317 -170 330 -180 q 346 -193 380 -196 l 375 -214 l 117 -214 l 122 -196 q 150 -191 164 -182 q 178 -173 189 -152 q 200 -131 213 -80 l 278 141 q 224 47 177 13 q 141 -14 105 -14 q 69 -14 48 13 q 19 48 19 108 q 19 171 48 240 q 77 309 125 362 q 172 415 221 440 q 245 453 276 453 q 306 453 325 435 q 344 417 351 377 l 370 439 z m 288 421 q 271 421 252 405 q 220 376 187 292 q 147 187 147 127 q 147 102 158 87 q 166 77 178 77 q 195 77 212 93 q 253 129 292 215 q 332 300 332 354 q 332 387 318 404 q 305 421 288 421 z"},"d":{"x_min":0,"x_max":500,"ha":500,"o":"m 545 677 l 387 131 q 372 80 372 69 q 372 63 375 60 q 379 56 384 56 q 392 56 403 64 q 421 78 447 116 l 464 106 q 396 -14 313 -14 q 284 -14 268 2 q 252 17 252 41 q 252 64 265 106 l 279 156 q 218 48 173 13 q 139 -14 107 -14 q 70 -14 45 16 q 20 46 20 103 q 20 176 52 247 q 84 317 127 365 q 169 412 207 432 q 246 453 283 453 q 302 453 317 445 q 332 437 351 416 l 387 537 q 400 582 400 602 q 400 613 391 622 q 382 630 368 630 q 361 630 351 628 l 355 647 l 516 677 z m 331 368 q 331 397 319 411 q 307 425 292 425 q 276 425 258 409 q 223 377 185 283 q 147 188 147 124 q 147 101 156 89 q 164 78 174 78 q 191 78 208 94 q 250 131 290 221 q 331 312 331 368 z"},"1":{"x_min":0,"x_max":500,"ha":500,"o":"m 445 676 l 283 120 q 271 77 271 65 q 271 53 280 41 q 289 28 299 25 q 310 21 362 18 l 357 0 l 23 0 l 29 18 q 79 19 98 26 q 118 34 130 50 q 143 67 158 120 l 254 450 q 276 525 277 530 q 280 542 280 554 q 280 576 266 589 q 253 602 228 602 q 216 602 180 598 l 176 616 l 424 676 z"},"5":{"x_min":0,"x_max":500,"ha":500,"o":"m 254 662 l 504 662 l 471 548 l 239 548 l 210 488 q 280 477 326 451 q 373 424 401 374 q 429 324 429 266 q 429 195 391 129 q 354 63 286 25 q 219 -14 144 -14 q 89 -14 64 6 q 38 26 38 52 q 38 74 53 89 q 69 104 90 104 q 107 104 121 99 q 129 95 171 61 q 197 40 225 40 q 262 40 288 72 q 322 114 322 179 q 322 237 293 287 q 265 337 216 363 q 179 383 119 385 z"}}}
